<svg width="17" height="16" viewBox="0 0 17 16" fill="none" xmlns="http://www.w3.org/2000/svg">
<g clip-path="url(#clip0_1_2487)">
<path d="M15.2876 4.48807V11.2245C15.2877 11.395 15.2428 11.5626 15.1574 11.7103C15.0721 11.858 14.9492 11.9807 14.8013 12.0659L8.95829 15.4316C8.81055 15.5171 8.6428 15.5622 8.47203 15.5622C8.30126 15.5622 8.13352 15.5171 7.98577 15.4316L2.14201 12.0659C1.99421 11.9806 1.87144 11.8581 1.78598 11.7106C1.70052 11.563 1.65536 11.3957 1.65503 11.2252V4.48807C1.65516 4.31757 1.70015 4.15011 1.78549 4.00244C1.87083 3.85477 1.99353 3.73207 2.14129 3.64664L7.98505 0.28093C8.1328 0.195422 8.30054 0.150391 8.47131 0.150391C8.64209 0.150391 8.80983 0.195422 8.95758 0.28093L14.8006 3.64664C14.9487 3.73182 15.0716 3.85443 15.1571 4.00215C15.2426 4.14986 15.2876 4.31746 15.2876 4.48807Z" fill="url(#paint0_radial_1_2487)" stroke="url(#paint1_linear_1_2487)" stroke-width="0.155714" stroke-miterlimit="10"/>
<mask id="mask0_1_2487" style="mask-type:luminance" maskUnits="userSpaceOnUse" x="1" y="-1" width="15" height="17">
<path d="M8.47131 15.7155L1.65503 11.7862V3.92831L8.47131 -0.000976562L15.2869 3.92831V11.7862L8.47131 15.7155Z" fill="white"/>
</mask>
<g mask="url(#mask0_1_2487)">
<path d="M8.24604 1.7405C8.48272 1.65815 8.74163 1.72689 8.95894 1.83359C9.10733 1.93671 9.26624 2.02384 9.43301 2.09354C9.44592 2.11789 9.47317 2.16515 9.48608 2.19022C9.47891 2.20669 9.466 2.23963 9.45955 2.25538C9.58075 2.53108 9.65821 2.85691 9.54059 3.14622C9.46026 3.24361 9.32113 3.25865 9.20853 3.2966C9.20853 3.43982 9.23004 3.57445 9.24223 3.71266C9.48321 3.75205 9.68762 3.58376 9.92645 3.60095C9.958 3.46704 9.98382 3.33169 10.0269 3.20064C10.0685 3.29009 10.0863 3.38876 10.0785 3.48709C10.1409 3.50499 10.204 3.52074 10.2685 3.5365C10.2685 3.56013 10.2685 3.60811 10.2685 3.63174C11.3149 3.63819 12.3599 3.62744 13.4063 3.63747C13.4063 3.67328 13.3984 3.74489 13.3963 3.78069H13.506C13.506 3.59092 13.506 3.40044 13.506 3.20781H13.6107C13.6107 3.35771 13.6107 3.50714 13.6107 3.65609L13.7047 3.76637L13.7764 3.68545C13.856 3.75706 13.8108 3.86161 13.8072 3.95327C14.0998 3.95327 14.3953 3.96974 14.6872 3.94611L14.7747 3.88166L14.8952 3.92893C15.0265 3.92893 15.1591 3.92535 15.2911 3.92535C15.2911 3.99696 15.2861 4.06069 15.2832 4.12872C15.1136 4.12093 14.9437 4.1286 14.7754 4.15164C14.6671 4.05926 14.5223 4.08862 14.3917 4.08504C14.1909 4.09435 13.9844 4.05926 13.79 4.12299C13.733 4.14078 13.6728 4.14628 13.6134 4.13912C13.5541 4.13196 13.4969 4.11231 13.4458 4.08146C13.4214 4.14233 13.4587 4.27839 13.3561 4.27337C12.953 4.27839 12.55 4.27337 12.1469 4.27337C12.0917 4.30202 12.0365 4.32995 11.9812 4.35644C11.9231 4.52974 11.756 4.64289 11.614 4.75173C11.5961 5.01813 11.7015 5.26662 11.7431 5.52513C11.6635 5.54805 11.5832 5.57096 11.505 5.59674C11.3917 5.86242 11.4613 6.22477 11.2002 6.41024C11.0001 6.52697 10.8674 6.77975 10.5977 6.73965C10.7347 6.85351 10.5597 6.81771 10.5784 6.72676C10.09 6.68379 9.67901 6.39735 9.25443 6.17965C9.23307 6.29898 9.2053 6.41707 9.17123 6.53341C9.25078 6.54627 9.32443 6.58327 9.38217 6.63939C9.43991 6.69551 9.47895 6.76802 9.49397 6.84707C9.54561 7.20512 9.44305 7.56318 9.44449 7.92481C9.45596 8.13964 9.36488 8.33084 9.25156 8.50343C9.15187 8.61585 8.99552 8.50343 8.87646 8.48409C8.84921 8.53637 8.82339 8.58864 8.79685 8.64163C8.83056 8.78486 8.84562 8.92808 8.89296 9.0713C9.16284 9.36204 9.39556 9.68508 9.58577 10.033C9.77671 10.4298 9.94691 10.8361 10.0957 11.2504C10.11 11.3313 10.1861 11.36 10.2528 11.3893C10.2621 11.4724 10.2707 11.5555 10.2786 11.6393L10.3582 11.7538C10.3642 12.2656 10.3219 12.7768 10.232 13.2806C10.1825 13.5083 10.3166 13.731 10.2621 13.9602C10.2685 14.0776 10.1904 14.1664 10.1495 14.2702C10.135 14.5134 10.1374 14.7572 10.1567 15C10.1753 15.1776 10.3259 15.2921 10.4278 15.4246C10.5389 15.5421 10.6322 15.7003 10.8007 15.7426C10.9593 15.7896 11.1105 15.8588 11.2497 15.9481C11.2864 16.0532 11.2916 16.1666 11.2647 16.2746C10.9599 16.3305 10.6487 16.3026 10.341 16.3076C10.1043 16.3197 9.89274 16.193 9.6618 16.1644C9.43875 16.1586 9.16693 16.2689 8.99552 16.0698C9.06724 15.7927 9.07441 15.4969 9.20709 15.2377C9.25012 14.9455 9.16908 14.6491 9.18558 14.3547L9.08373 14.2688C9.10238 14.0769 9.00699 13.905 8.97544 13.721C8.95464 13.4517 8.93025 13.1832 8.8987 12.9154C8.89095 12.8524 8.89932 12.7885 8.92303 12.7296C8.94674 12.6708 8.985 12.6189 9.03425 12.5788C9.04214 12.4284 9.06293 12.2795 9.07728 12.1298C9.05505 12.0331 8.97759 11.9608 8.92738 11.8777C8.76028 11.9493 8.53579 11.9142 8.4361 11.7517C8.20086 11.4018 7.96466 11.0525 7.72751 10.704C7.63304 10.7084 7.53851 10.697 7.4478 10.6704C7.34739 10.5673 7.29432 10.429 7.23264 10.3037C7.14083 10.4068 7.14729 10.5651 7.03828 10.6618C6.80734 10.8823 6.74637 11.2074 6.62588 11.491C6.53337 11.6744 6.585 11.8963 6.48244 12.0754C6.42722 12.172 6.2888 12.1914 6.25222 12.3017C6.21485 12.426 6.13965 12.5356 6.03706 12.6153C5.91657 12.6948 5.8843 12.8452 5.82979 12.9734C5.77528 13.1016 5.85418 13.209 5.83696 13.3264C5.7595 13.7009 5.52139 14.0139 5.42099 14.3805C5.37508 14.5452 5.30982 14.7314 5.11689 14.7665C4.90173 15.1568 4.77766 15.6344 4.90173 16.0741C4.96695 16.2131 4.98386 16.3699 4.94978 16.5195C4.60194 16.5468 4.24549 16.5912 3.9041 16.4959C3.82378 16.3377 3.83238 16.1515 3.85175 15.9803C3.95072 15.5263 4.09416 15.0873 4.17664 14.6297C4.06906 14.5345 4.09416 14.3891 4.09631 14.2624C4.09631 14.0246 4.25482 13.8327 4.3667 13.6401C4.40901 13.4403 4.38893 13.2254 4.49293 13.0421C4.61413 12.813 4.71741 12.5645 4.9046 12.379C4.94046 12.2157 5.06167 12.0926 5.11044 11.935C5.16208 11.7954 5.07099 11.6543 5.08964 11.5125C5.1341 11.0828 5.213 10.6532 5.28113 10.2235C5.15204 10.1154 5.19363 9.94495 5.15275 9.8003C5.17278 9.7431 5.19824 9.68795 5.22878 9.63559L5.13267 9.54608C5.16423 9.39426 5.1549 9.12143 5.38871 9.17084C5.40377 8.66956 5.22806 8.17903 5.28687 7.67417C5.31843 7.71069 5.34927 7.74578 5.38011 7.78445L5.36361 7.6133C5.46029 7.56146 5.56426 7.52452 5.67201 7.50374C5.49486 7.48011 5.32129 7.43213 5.14701 7.39489C5.11795 7.28288 5.11795 7.16532 5.14701 7.05331C5.20922 6.67073 5.24469 6.28429 5.25316 5.89679C5.45039 5.82518 5.6677 5.88605 5.85991 5.79439C5.80039 5.3103 5.78819 4.80473 5.95817 4.33997C6.09659 3.94468 6.36195 3.56299 6.77578 3.42407C6.97086 3.37752 7.21686 3.32453 7.35528 3.5143L7.46931 3.40903C7.15374 2.78315 7.53027 1.86868 8.24676 1.7405M10.772 4.45383C10.6888 4.50468 10.6071 4.5634 10.6946 4.65578C10.6515 4.68084 10.6092 4.70519 10.5662 4.72739C10.4981 4.77895 10.3467 4.80902 10.3639 4.91358C10.4398 5.03535 10.5053 5.16327 10.5597 5.29598C10.7254 5.15622 10.8577 4.98129 10.947 4.78396L11.0223 4.70734C11.0147 4.6189 10.9934 4.53218 10.9592 4.45025C10.8968 4.45025 10.8344 4.45025 10.772 4.45025V4.45383Z" fill="black"/>
</g>
</g>
<defs>
<radialGradient id="paint0_radial_1_2487" cx="0" cy="0" r="1" gradientUnits="userSpaceOnUse" gradientTransform="translate(8.46844 15.5605) rotate(-90) scale(18.9769 19.0058)">
<stop stop-color="#F8A605"/>
<stop offset="0.84" stop-color="#DE587E"/>
</radialGradient>
<linearGradient id="paint1_linear_1_2487" x1="8.47203" y1="15.6364" x2="8.47203" y2="0.0775559" gradientUnits="userSpaceOnUse">
<stop stop-color="#6325C8"/>
<stop offset="0.01" stop-color="#6325C8"/>
<stop offset="1" stop-color="#6325C8"/>
</linearGradient>
<clipPath id="clip0_1_2487">
<rect width="16" height="16" fill="white" transform="translate(0.324951)"/>
</clipPath>
</defs>
</svg>
