<svg width="48" height="48" viewBox="0 0 48 48" fill="none" xmlns="http://www.w3.org/2000/svg">
<path d="M44.4261 13.8903V34.1004C44.4264 34.612 44.2917 35.1147 44.0356 35.5578C43.7795 36.001 43.411 36.369 42.9673 36.6248L25.4374 46.7223C24.9942 46.9788 24.4909 47.1139 23.9786 47.1139C23.4662 47.1139 22.963 46.9788 22.5197 46.7223L4.98773 36.6248C4.54433 36.3689 4.176 36.0013 3.9196 35.5586C3.6632 35.116 3.52773 34.6139 3.52673 34.1025V13.8903C3.52713 13.3788 3.6621 12.8764 3.91813 12.4333C4.17416 11.9903 4.54226 11.6222 4.98558 11.3659L22.5176 1.26834C22.9608 1.01181 23.4641 0.876709 23.9764 0.876709C24.4888 0.876709 24.992 1.01181 25.4353 1.26834L42.9651 11.3659C43.4093 11.6214 43.7782 11.9893 44.0346 12.4325C44.2911 12.8756 44.4261 13.3784 44.4261 13.8903Z" fill="url(#paint0_radial_301_924)" stroke="url(#paint1_linear_301_924)" stroke-width="0.419351" stroke-miterlimit="10"/>
<mask id="mask0_301_924" style="mask-type:luminance" maskUnits="userSpaceOnUse" x="3" y="0" width="42" height="48">
<path d="M23.9773 47.5733L3.52765 35.7849V12.2104L23.9773 0.422058L44.4249 12.2104V35.7849L23.9773 47.5733Z" fill="white"/>
</mask>
<g mask="url(#mask0_301_924)">
<path d="M23.2971 5.64423C24.0071 5.39717 24.7839 5.60341 25.4359 5.92353C25.8811 6.23288 26.3578 6.49429 26.8581 6.7034C26.8969 6.77645 26.9786 6.91824 27.0173 6.99344C26.9958 7.04285 26.9571 7.14168 26.9377 7.18894C27.3014 8.01608 27.5338 8.99361 27.1809 9.86157C26.9399 10.1537 26.5225 10.1989 26.1846 10.3127C26.1846 10.7424 26.2492 11.1463 26.2858 11.561C27.0087 11.6791 27.622 11.1742 28.3385 11.2258C28.4332 10.8241 28.5106 10.418 28.6397 10.0248C28.7646 10.2932 28.818 10.5892 28.7946 10.8842C28.9818 10.9379 29.1712 10.9852 29.3648 11.0324C29.3648 11.1033 29.3648 11.2473 29.3648 11.3182C32.5042 11.3375 35.6392 11.3053 38.7785 11.3354C38.7785 11.4428 38.7548 11.6576 38.7484 11.7651H39.0776C39.0776 11.1957 39.0776 10.6243 39.0776 10.0463H39.3917C39.3917 10.4961 39.3917 10.9444 39.3917 11.3912L39.6736 11.7221L39.8888 11.4793C40.1276 11.6942 39.9921 12.0078 39.9813 12.2828C40.8592 12.2828 41.7457 12.3322 42.6214 12.2613L42.8839 12.068L43.2454 12.2098C43.6392 12.2098 44.0372 12.199 44.4331 12.199C44.4331 12.4139 44.4181 12.6051 44.4095 12.8092C43.9006 12.7858 43.3907 12.8088 42.8861 12.8779C42.5612 12.6008 42.1265 12.6889 41.7349 12.6781C41.1325 12.7061 40.5128 12.6008 39.9297 12.792C39.7585 12.8454 39.5779 12.8619 39.3999 12.8404C39.2218 12.8189 39.0504 12.7599 38.8968 12.6674C38.8237 12.85 38.9356 13.2582 38.6279 13.2432C37.4186 13.2582 36.2094 13.2432 35.0001 13.2432C34.8344 13.3291 34.6688 13.4129 34.5031 13.4924C34.3288 14.0123 33.8275 14.3517 33.4014 14.6783C33.3476 15.4775 33.6639 16.223 33.7887 16.9986C33.5499 17.0673 33.3089 17.1361 33.0744 17.2134C32.7344 18.0105 32.9431 19.0976 32.1599 19.654C31.5596 20.0042 31.1615 20.7626 30.3525 20.6423C30.7634 20.9839 30.2384 20.8765 30.2944 20.6036C28.8291 20.4747 27.5962 19.6154 26.3224 18.9622C26.2583 19.3202 26.175 19.6745 26.0728 20.0236C26.3114 20.0621 26.5324 20.1731 26.7056 20.3415C26.8788 20.5099 26.996 20.7274 27.041 20.9646C27.1959 22.0388 26.8883 23.113 26.8926 24.1979C26.927 24.8424 26.6537 25.4161 26.3137 25.9338C26.0147 26.2711 25.5456 25.9338 25.1884 25.8758C25.1066 26.0327 25.0292 26.1895 24.9496 26.3485C25.0507 26.7782 25.0959 27.2078 25.2379 27.6375C26.0476 28.5098 26.7458 29.4789 27.3164 30.5228C27.8893 31.7131 28.3999 32.9321 28.8463 34.1751C28.8893 34.4179 29.1174 34.5039 29.3175 34.5919C29.3455 34.8412 29.3713 35.0904 29.395 35.3417L29.6338 35.6855C29.6518 37.2208 29.525 38.7543 29.2551 40.2659C29.1066 40.9491 29.509 41.6172 29.3455 42.3047C29.3648 42.6571 29.1303 42.9235 29.0077 43.235C28.9642 43.9644 28.9714 44.6959 29.0292 45.4242C29.0851 45.957 29.537 46.3008 29.8425 46.6982C30.176 47.0506 30.4558 47.5254 30.9614 47.6521C31.4372 47.7933 31.8907 48.0009 32.3084 48.2687C32.4184 48.584 32.4341 48.9244 32.3535 49.2484C31.4391 49.416 30.5052 49.3322 29.5822 49.3472C28.8721 49.3838 28.2374 49.0035 27.5445 48.9176C26.8753 48.9004 26.0598 49.2312 25.5456 48.634C25.7608 47.8025 25.7823 46.9152 26.1803 46.1375C26.3094 45.261 26.0663 44.3715 26.1158 43.4885L25.8103 43.2307C25.8662 42.6549 25.58 42.1393 25.4853 41.5872C25.4229 40.7794 25.3498 39.9737 25.2551 39.1702C25.2319 38.9813 25.257 38.7896 25.3281 38.613C25.3992 38.4364 25.514 38.2807 25.6618 38.1604C25.6855 37.7093 25.7479 37.2624 25.7909 36.8134C25.7242 36.5234 25.4918 36.3064 25.3412 36.0572C24.8398 36.272 24.1664 36.1667 23.8673 35.679C23.1615 34.6292 22.4529 33.5815 21.7414 32.5359C21.458 32.549 21.1744 32.5149 20.9022 32.4349C20.601 32.1256 20.4418 31.7109 20.2567 31.3349C19.9813 31.6443 20.0007 32.1191 19.6736 32.4092C18.9808 33.0709 18.7979 34.0462 18.4364 34.897C18.1588 35.447 18.3138 36.113 18.0061 36.6501C17.8404 36.9402 17.4251 36.9982 17.3154 37.329C17.2033 37.702 16.9777 38.0309 16.6699 38.27C16.3084 38.5085 16.2116 38.9597 16.048 39.3442C15.8845 39.7288 16.1212 40.0511 16.0695 40.4034C15.8372 41.527 15.1228 42.4659 14.8216 43.5659C14.6839 44.06 14.488 44.6186 13.9092 44.7239C13.2637 45.8947 12.8915 47.3277 13.2637 48.6469C13.4594 49.0639 13.5101 49.5341 13.4079 49.9832C12.3643 50.0648 11.2949 50.198 10.2707 49.9123C10.0297 49.4375 10.0556 48.8789 10.1137 48.3654C10.4106 47.0033 10.8409 45.6863 11.0884 44.3135C10.7656 44.0278 10.8409 43.5916 10.8474 43.2114C10.8474 42.4981 11.3229 41.9223 11.6586 41.3444C11.7855 40.745 11.7253 40.1005 12.0373 39.5505C12.4009 38.863 12.7108 38.1175 13.2723 37.561C13.3799 37.0712 13.7436 36.7017 13.8899 36.229C14.0448 35.8101 13.7715 35.3869 13.8275 34.9615C13.9609 33.6724 14.1976 32.3834 14.402 31.0943C14.0147 30.7699 14.1395 30.2586 14.0168 29.8246C14.0769 29.653 14.1533 29.4876 14.2449 29.3305L13.9566 29.0619C14.0513 28.6065 14.0233 27.7879 14.7247 27.9362C14.7699 26.4323 14.2428 24.9606 14.4192 23.446C14.5139 23.5555 14.6064 23.6608 14.6989 23.7768L14.6494 23.2634C14.9395 23.1078 15.2514 22.997 15.5747 22.9347C15.0432 22.8638 14.5225 22.7198 13.9996 22.6081C13.9124 22.272 13.9124 21.9194 13.9996 21.5833C14.1862 20.4355 14.2926 19.2762 14.3181 18.1136C14.9098 17.8988 15.5617 18.0814 16.1384 17.8064C15.9598 16.3541 15.9232 14.8373 16.4332 13.443C16.8485 12.257 17.6446 11.1119 18.8861 10.6951C19.4714 10.5555 20.2094 10.3965 20.6247 10.9658L20.9668 10.65C20.02 8.77232 21.1497 6.0288 23.2992 5.64423M30.8753 13.7846C30.6257 13.9371 30.3804 14.1133 30.643 14.3904C30.5139 14.4656 30.3869 14.5387 30.2578 14.6053C30.0534 14.7599 29.5994 14.8502 29.651 15.1638C29.8786 15.5292 30.0751 15.913 30.2384 16.3111C30.7354 15.8918 31.1324 15.367 31.4003 14.775L31.6263 14.5451C31.6034 14.2798 31.5396 14.0196 31.4369 13.7738C31.2497 13.7738 31.0625 13.7738 30.8753 13.7738V13.7846Z" fill="black"/>
</g>
<defs>
<radialGradient id="paint0_radial_301_924" cx="0" cy="0" r="1" gradientUnits="userSpaceOnUse" gradientTransform="translate(23.9678 47.109) rotate(-90) scale(56.9329 57.0198)">
<stop stop-color="#F8A605"/>
<stop offset="0.84" stop-color="#DE587E"/>
</radialGradient>
<linearGradient id="paint1_linear_301_924" x1="23.9786" y1="47.3367" x2="23.9786" y2="0.658196" gradientUnits="userSpaceOnUse">
<stop stop-color="#6325C8"/>
<stop offset="0.01" stop-color="#6325C8"/>
<stop offset="1" stop-color="#6325C8"/>
</linearGradient>
</defs>
</svg>
