<svg width="95" height="94" viewBox="0 0 95 94" fill="none" xmlns="http://www.w3.org/2000/svg">
<path d="M87.4995 27.2026V66.7791C87.5 67.781 87.2363 68.7654 86.7348 69.6332C86.2333 70.5009 85.5117 71.2216 84.6427 71.7225L50.3149 91.496C49.4469 91.9984 48.4614 92.263 47.4581 92.263C46.4548 92.263 45.4693 91.9984 44.6013 91.496L10.2692 71.7225C9.40092 71.2215 8.67963 70.5015 8.17754 69.6347C7.67545 68.7679 7.41015 67.7847 7.4082 66.7833V27.2026C7.40899 26.201 7.6733 25.2171 8.17466 24.3495C8.67603 23.482 9.39687 22.7611 10.265 22.2592L44.5971 2.48567C45.4651 1.98331 46.4506 1.71875 47.4539 1.71875C48.4572 1.71875 49.4427 1.98331 50.3107 2.48567L84.6385 22.2592C85.5083 22.7596 86.2307 23.48 86.7329 24.3478C87.2352 25.2157 87.4996 26.2003 87.4995 27.2026Z" fill="url(#paint0_radial_301_606)" stroke="url(#paint1_linear_301_606)" stroke-width="0.821196" stroke-miterlimit="10"/>
<mask id="mask0_301_606" style="mask-type:luminance" maskUnits="userSpaceOnUse" x="7" y="0" width="81" height="94">
<path d="M47.4578 93.1621L7.41211 70.0776V23.9127L47.4578 0.828125L87.4992 23.9127V70.0776L47.4578 93.1621Z" fill="white"/>
</mask>
<g mask="url(#mask0_301_606)">
<path d="M46.126 11.0547C47.5165 10.5708 49.0376 10.9747 50.3143 11.6016C51.1861 12.2074 52.1197 12.7193 53.0994 13.1288C53.1753 13.2718 53.3354 13.5495 53.4112 13.6967C53.3691 13.7935 53.2933 13.987 53.2553 14.0796C53.9674 15.6993 54.4225 17.6136 53.7315 19.3133C53.2596 19.8854 52.4421 19.9738 51.7806 20.1968C51.7806 21.0382 51.907 21.8291 51.9786 22.6411C53.3944 22.8725 54.5953 21.8838 55.9984 21.9848C56.1838 21.1981 56.3355 20.4029 56.5883 19.633C56.8328 20.1585 56.9373 20.7382 56.8917 21.3159C57.2582 21.421 57.629 21.5136 58.0082 21.6062C58.0082 21.745 58.0082 22.0269 58.0082 22.1657C64.1558 22.2036 70.295 22.1405 76.4426 22.1994C76.4426 22.4097 76.3962 22.8304 76.3836 23.0408H77.0282C77.0282 21.9259 77.0282 20.8068 77.0282 19.6751H77.6434C77.6434 20.5558 77.6434 21.4337 77.6434 22.3087L78.1954 22.9566L78.6168 22.4812C79.0845 22.902 78.819 23.5162 78.7979 24.0547C80.5171 24.0547 82.2531 24.1515 83.968 24.0126L84.482 23.634L85.1899 23.9117C85.961 23.9117 86.7405 23.8906 87.5158 23.8906C87.5158 24.3113 87.4863 24.6858 87.4694 25.0855C86.473 25.0397 85.4745 25.0848 84.4862 25.2201C83.85 24.6774 82.9989 24.8499 82.232 24.8288C81.0522 24.8835 79.8387 24.6774 78.6968 25.0518C78.3616 25.1563 78.008 25.1886 77.6593 25.1466C77.3107 25.1045 76.9749 24.989 76.6743 24.8078C76.531 25.1654 76.7501 25.9647 76.1476 25.9353C73.7796 25.9647 71.4116 25.9353 69.0436 25.9353C68.7191 26.1036 68.3947 26.2677 68.0702 26.4233C67.7289 27.4415 66.7472 28.1062 65.9129 28.7457C65.8075 30.3107 66.4269 31.7706 66.6713 33.2894C66.2036 33.424 65.7317 33.5586 65.2724 33.7101C64.6067 35.2709 65.0154 37.3997 63.4817 38.4894C62.3061 39.1752 61.5266 40.6603 59.9423 40.4247C60.7471 41.0936 59.719 40.8833 59.8285 40.3489C56.9591 40.0965 54.5447 38.4137 52.0503 37.1347C51.9248 37.8357 51.7617 38.5295 51.5615 39.213C52.0288 39.2886 52.4615 39.506 52.8008 39.8356C53.14 40.1653 53.3693 40.5913 53.4576 41.0557C53.761 43.1593 53.1584 45.2629 53.1669 47.3875C53.2343 48.6496 52.6992 49.7729 52.0334 50.7869C51.4477 51.4474 50.5292 50.7868 49.8297 50.6733C49.6696 50.9804 49.5179 51.2875 49.362 51.5988C49.5601 52.4403 49.6485 53.2817 49.9266 54.1231C51.5122 55.8312 52.8794 57.7291 53.9969 59.7733C55.1187 62.104 56.1186 64.4913 56.9928 66.9254C57.077 67.4008 57.5237 67.5691 57.9155 67.7416C57.9703 68.2296 58.0209 68.7177 58.0672 69.2099L58.5349 69.883C58.5702 72.8895 58.322 75.8927 57.7934 78.8527C57.5026 80.1905 58.2906 81.4989 57.9703 82.8452C58.0082 83.5352 57.549 84.0569 57.3088 84.6669C57.2238 86.0952 57.2379 87.5276 57.3509 88.954C57.4605 89.9974 58.3453 90.6705 58.9437 91.4488C59.5968 92.1388 60.1445 93.0686 61.1347 93.3168C62.0665 93.5932 62.9545 93.9997 63.7724 94.5242C63.9879 95.1416 64.0186 95.8082 63.8609 96.4427C62.0701 96.7709 60.2414 96.6068 58.4338 96.6362C57.0433 96.7077 55.8003 95.9631 54.4436 95.7948C53.1332 95.7611 51.5362 96.409 50.5292 95.2395C50.9505 93.6113 50.9927 91.8737 51.7722 90.3508C52.025 88.6343 51.5489 86.8925 51.6458 85.1634L51.0474 84.6585C51.157 83.531 50.5966 82.5213 50.4112 81.44C50.289 79.8582 50.1457 78.2805 49.9604 76.707C49.9149 76.3371 49.964 75.9617 50.1033 75.6159C50.2426 75.2701 50.4674 74.9652 50.7567 74.7297C50.8031 73.8462 50.9253 72.9711 51.0095 72.0918C50.8789 71.5238 50.4238 71.0989 50.1289 70.6109C49.1471 71.0316 47.8283 70.8254 47.2426 69.8704C45.8606 67.8145 44.4729 65.7629 43.0796 63.7154C42.5246 63.7411 41.9693 63.6742 41.4363 63.5177C40.8464 62.9118 40.5346 62.0998 40.1722 61.3636C39.6329 61.9694 39.6708 62.8992 39.0304 63.4672C37.6736 64.763 37.3155 66.673 36.6076 68.339C36.064 69.4161 36.3674 70.7203 35.7649 71.7721C35.4404 72.34 34.6272 72.4536 34.4123 73.1015C34.1928 73.8319 33.751 74.4759 33.1482 74.9442C32.4404 75.4112 32.2508 76.2947 31.9305 77.0478C31.6103 77.8009 32.0738 78.4319 31.9727 79.1219C31.5176 81.3223 30.1187 83.1608 29.5288 85.3148C29.2591 86.2825 28.8757 87.3763 27.7423 87.5825C26.4782 89.8754 25.7492 92.6815 26.4782 95.2647C26.8613 96.0813 26.9607 97.0022 26.7605 97.8815C24.7169 98.0414 22.6228 98.3023 20.6171 97.7427C20.1452 96.8129 20.1958 95.7191 20.3095 94.7136C20.891 92.0462 21.7337 89.4673 22.2183 86.7789C21.5862 86.2194 21.7337 85.3653 21.7464 84.6206C21.7464 83.2239 22.6776 82.0964 23.3349 80.9646C23.5835 79.7908 23.4655 78.5287 24.0765 77.4517C24.7885 76.1054 25.3953 74.6455 26.495 73.5559C26.7057 72.5966 27.4178 71.873 27.7043 70.9474C28.0077 70.1271 27.4726 69.2983 27.5821 68.4652C27.8434 65.941 28.3069 63.4167 28.7072 60.8924C27.9487 60.2571 28.1931 59.2558 27.9529 58.406C28.0706 58.07 28.2202 57.7459 28.3996 57.4383L27.835 56.9124C28.0203 56.0205 27.9656 54.4176 29.3392 54.7079C29.4277 51.7629 28.3954 48.881 28.7409 45.915C28.9263 46.1296 29.1074 46.3357 29.2886 46.5629L29.1917 45.5574C29.7597 45.2528 30.3705 45.0358 31.0035 44.9137C29.9628 44.7749 28.9431 44.493 27.9192 44.2742C27.7485 43.6161 27.7485 42.9255 27.9192 42.2674C28.2847 40.0197 28.4931 37.7494 28.5428 35.4729C29.7016 35.0522 30.9783 35.4098 32.1075 34.8713C31.7578 32.0272 31.6861 29.057 32.6848 26.3266C33.498 24.0042 35.057 21.7618 37.4882 20.9456C38.6343 20.6722 40.0796 20.3608 40.8928 21.4757L41.5627 20.8573C39.7088 17.1802 41.9209 11.8077 46.1302 11.0547M60.9662 26.9955C60.4774 27.2942 59.997 27.6392 60.5111 28.1819C60.2583 28.3292 60.0097 28.4722 59.7569 28.6026C59.3566 28.9055 58.4675 29.0822 58.5686 29.6965C59.0143 30.4119 59.3991 31.1634 59.7189 31.9431C60.6922 31.122 61.4696 30.0943 61.9943 28.935L62.4367 28.4848C62.392 27.9653 62.2669 27.4558 62.0659 26.9745C61.6993 26.9745 61.3327 26.9745 60.9662 26.9745V26.9955Z" fill="black"/>
</g>
<defs>
<radialGradient id="paint0_radial_301_606" cx="0" cy="0" r="1" gradientUnits="userSpaceOnUse" gradientTransform="translate(47.437 92.2533) rotate(-90) scale(111.489 111.659)">
<stop stop-color="#F8A605"/>
<stop offset="0.84" stop-color="#DE587E"/>
</radialGradient>
<linearGradient id="paint1_linear_301_606" x1="47.4581" y1="92.6993" x2="47.4581" y2="1.29085" gradientUnits="userSpaceOnUse">
<stop stop-color="#6325C8"/>
<stop offset="0.01" stop-color="#6325C8"/>
<stop offset="1" stop-color="#6325C8"/>
</linearGradient>
</defs>
</svg>
