<svg width="20" height="20" viewBox="0 0 20 20" fill="none" xmlns="http://www.w3.org/2000/svg">
<g clip-path="url(#clip0_301_136)">
<path d="M20 10C20 15.5229 15.5229 20 10 20C7.08857 20 4.46775 18.7559 2.64041 16.7702C2.15897 16.2472 1.73441 15.6746 1.37388 15.062C0.500816 13.5771 0 11.8469 0 10C0 4.47714 4.47714 0 10 0C11.8473 0 13.5775 0.500816 15.062 1.37429C15.6747 1.73455 16.2472 2.15913 16.7698 2.64082C18.7555 4.46735 20 7.08857 20 10Z" fill="#9DABBD"/>
<path d="M20 10C20 15.3984 15.7229 19.7976 10.3723 19.9931C5.02165 19.7976 0.744507 15.3984 0.744507 10C0.744507 4.60163 5.02165 0.202451 10.3723 0.00694084C15.7229 0.202451 20 4.60163 20 10Z" fill="#FFDE50"/>
<path d="M17.7706 10C17.7706 14.2914 14.2914 17.7706 9.99998 17.7706C8.50529 17.7706 7.10937 17.3486 5.92447 16.6171C5.4094 16.2993 4.93312 15.9224 4.50529 15.4943C4.19075 15.1801 3.90372 14.8395 3.64733 14.4763C3.29115 13.972 2.99654 13.4269 2.76978 12.8527C2.43182 11.9976 2.24162 11.0678 2.23019 10.0955C2.22937 10.0637 2.22937 10.0318 2.22937 10C2.22937 5.70857 5.70815 2.22939 9.99998 2.22939C10.0318 2.22939 10.0641 2.22939 10.0959 2.2302C11.0681 2.24163 11.9975 2.43224 12.8526 2.7698C13.4268 2.99672 13.9719 3.29132 14.4763 3.64735C14.84 3.90449 15.1804 4.19143 15.4943 4.50531C15.9225 4.93305 16.2993 5.40934 16.6171 5.92449C17.3486 7.10939 17.7706 8.50531 17.7706 10Z" fill="#FAA300"/>
<path d="M15.4943 4.50531L4.50529 15.4943C4.19075 15.1801 3.90372 14.8395 3.64733 14.4763C3.29115 13.972 2.99654 13.4269 2.76978 12.8527C2.43182 11.9976 2.24162 11.0678 2.23019 10.0955C2.22937 10.0637 2.22937 10.0318 2.22937 10C2.22937 5.70857 5.70815 2.22939 9.99998 2.22939C10.0318 2.22939 10.0641 2.22939 10.0959 2.2302C11.0681 2.24163 11.9975 2.43224 12.8526 2.7698C13.4268 2.99672 13.9719 3.29132 14.4763 3.64735C14.84 3.90449 15.1804 4.19143 15.4943 4.50531Z" fill="#FFBD00"/>
<path d="M17.7704 10C17.7704 14.2914 14.2912 17.7706 9.99981 17.7706C9.85246 17.7706 9.70634 17.7665 9.56104 17.7584C13.6484 17.531 16.8925 14.1441 16.8925 10C16.8925 5.85592 13.6484 2.46898 9.56104 2.24163C9.70634 2.23347 9.85246 2.22939 9.99981 2.22939C14.2912 2.22939 17.7704 5.70857 17.7704 10Z" fill="#F68E00"/>
<path d="M10.7645 9.4029V6.25592C11.255 6.52649 11.588 7.04869 11.588 7.64735C11.588 8.06963 11.9304 8.41196 12.3527 8.41196C12.7749 8.41196 13.1173 8.06963 13.1173 7.64735C13.1173 6.1922 12.1149 4.96698 10.7645 4.62518V4.00282C10.7645 3.58053 10.4222 3.2382 9.99992 3.2382C9.57763 3.2382 9.2353 3.58053 9.2353 4.00282V4.62514C7.8849 4.96698 6.88257 6.19216 6.88257 7.64731C6.88257 8.51616 7.13775 9.19371 7.66269 9.71865C8.04543 10.1014 8.55383 10.3846 9.2353 10.5922V13.7442C8.74485 13.4736 8.41179 12.9514 8.41179 12.3528C8.41179 11.9305 8.06947 11.5882 7.64718 11.5882C7.2249 11.5882 6.88257 11.9305 6.88257 12.3528C6.88257 13.8079 7.8849 15.0331 9.2353 15.3749V15.9973C9.2353 16.4195 9.57763 16.7619 9.99992 16.7619C10.4222 16.7619 10.7645 16.4195 10.7645 15.9973V15.3749C12.1149 15.0331 13.1173 13.808 13.1173 12.3528C13.1173 11.496 12.8511 10.7954 12.3263 10.2706C11.9449 9.88914 11.4301 9.60318 10.7645 9.4029ZM8.744 8.63735C8.5893 8.48269 8.41179 8.23037 8.41179 7.64731C8.41179 7.04865 8.74485 6.52649 9.2353 6.25588V8.96265C9.0291 8.86714 8.86583 8.75918 8.744 8.63735ZM10.7645 13.7442V11.029C11.4291 11.3385 11.588 11.7812 11.588 12.3528C11.588 12.9514 11.255 13.4736 10.7645 13.7442Z" fill="#FFEA94"/>
</g>
<defs>
<clipPath id="clip0_301_136">
<rect width="20" height="20" fill="white"/>
</clipPath>
</defs>
</svg>
