<svg width="21" height="20" viewBox="0 0 21 20" fill="none" xmlns="http://www.w3.org/2000/svg">
<path fill-rule="evenodd" clip-rule="evenodd" d="M14.9978 2.10734C11.7153 1.51933 9.51498 1.52018 6.23283 2.10749C5.4333 2.25055 4.86578 2.95006 4.86578 3.75014V4.04749L3.79047 4.15502C2.93401 4.24066 2.2818 4.96135 2.2818 5.82208V6.98536C2.2818 8.97757 3.4734 10.6901 5.18098 11.4516C5.89972 13.5269 7.77374 15.0627 10.0337 15.2897V17.1705H8.03115C7.71006 17.1705 7.44976 17.4308 7.44976 17.7519C7.44976 18.073 7.71006 18.3333 8.03115 18.3333H13.1991C13.5202 18.3333 13.7805 18.073 13.7805 17.7519C13.7805 17.4308 13.5202 17.1705 13.1991 17.1705H11.1965V15.2897C13.4565 15.0627 15.3305 13.5269 16.0493 11.4516C17.7568 10.6902 18.9485 8.97759 18.9485 6.98536V5.82208C18.9485 4.96135 18.2963 4.24066 17.4398 4.15502L16.3645 4.04749V3.74989C16.3645 2.95 15.7972 2.25054 14.9978 2.10734ZM3.90617 5.31204L4.86578 5.21608V9.56934C4.86578 9.68752 4.86935 9.80486 4.87638 9.92128C4.00445 9.23912 3.44459 8.17721 3.44459 6.98536V5.82208C3.44459 5.55874 3.64414 5.33824 3.90617 5.31204ZM17.7857 6.98536C17.7857 8.1772 17.2258 9.2391 16.3539 9.92127C16.3609 9.80486 16.3645 9.68752 16.3645 9.56934V5.21608L17.3241 5.31204C17.5861 5.33824 17.7857 5.55874 17.7857 5.82208V6.98536Z" fill="#9DABBD"/>
</svg>
