<svg width="18" height="16" viewBox="0 0 18 16" fill="none" xmlns="http://www.w3.org/2000/svg">
<path fill-rule="evenodd" clip-rule="evenodd" d="M3.53509 0.708379C3.55092 0.708382 3.56699 0.708384 3.5833 0.708384H14.4166C14.4329 0.708384 14.449 0.708382 14.4649 0.708379C14.8054 0.708323 15.0374 0.708284 15.2412 0.735119C16.6435 0.919734 17.747 2.0232 17.9316 3.42549C17.9584 3.62932 17.9584 3.86127 17.9583 4.20183C17.9583 4.21767 17.9583 4.23374 17.9583 4.25005V10.6935C17.9583 11.3708 17.9583 11.9172 17.9222 12.3596C17.8849 12.8151 17.8063 13.2153 17.6177 13.5854C17.3181 14.1734 16.84 14.6515 16.252 14.9511C15.8818 15.1397 15.4817 15.2184 15.0262 15.2556C14.5838 15.2917 14.0374 15.2917 13.3601 15.2917H4.63987C3.96251 15.2917 3.41617 15.2917 2.97375 15.2556C2.51822 15.2184 2.1181 15.1397 1.74792 14.9511C1.15991 14.6515 0.681845 14.1734 0.382241 13.5854C0.193624 13.2153 0.114991 12.8151 0.0777725 12.3596C0.041625 11.9172 0.04163 11.3708 0.0416361 10.6935L0.0416363 4.25005C0.0416363 4.23374 0.0416337 4.21767 0.041631 4.20183C0.0415747 3.86127 0.0415363 3.62932 0.0683711 3.42549C0.252986 2.0232 1.35645 0.919734 2.75874 0.735119C2.96257 0.708284 3.19452 0.708323 3.53509 0.708379ZM3.5833 1.95838C3.17642 1.95838 3.0335 1.95973 2.9219 1.97443C2.08052 2.08519 1.41845 2.74727 1.30768 3.58865C1.2987 3.65682 1.29471 3.73667 1.29296 3.88123L8.65861 7.93234C8.78198 8.0002 8.85194 8.03841 8.90625 8.06434C8.93979 8.08036 8.95465 8.08536 8.95863 8.08652C8.98591 8.09204 9.01403 8.09204 9.04131 8.08652C9.04531 8.08535 9.06016 8.08036 9.09369 8.06434C9.148 8.0384 9.21796 8.00019 9.34133 7.93234L16.707 3.88123C16.7052 3.73667 16.7012 3.65682 16.6923 3.58865C16.5815 2.74727 15.9194 2.08519 15.078 1.97443C14.9664 1.95973 14.8235 1.95838 14.4166 1.95838H3.5833ZM16.7083 5.3071L9.94373 9.02761C9.92831 9.03609 9.91281 9.04466 9.89722 9.05329C9.71103 9.15624 9.51206 9.26625 9.29132 9.31126C9.09906 9.35046 8.90087 9.35046 8.70862 9.31126C8.48788 9.26625 8.28892 9.15624 8.10273 9.05329C8.08714 9.04467 8.07163 9.03609 8.05621 9.02761L1.29164 5.3071V10.6667C1.29164 11.3771 1.29212 11.8723 1.32362 12.2578C1.35452 12.636 1.41213 12.8534 1.496 13.018C1.67576 13.3708 1.9626 13.6576 2.3154 13.8374C2.48 13.9212 2.69731 13.9788 3.07554 14.0097C3.46106 14.0412 3.95626 14.0417 4.66664 14.0417H13.3333C14.0437 14.0417 14.5389 14.0412 14.9244 14.0097C15.3026 13.9788 15.5199 13.9212 15.6845 13.8374C16.0373 13.6576 16.3242 13.3708 16.5039 13.018C16.5878 12.8534 16.6454 12.636 16.6763 12.2578C16.7078 11.8723 16.7083 11.3771 16.7083 10.6667V5.3071Z" fill="#616F81"/>
</svg>
