<svg width="21" height="20" viewBox="0 0 21 20" fill="none" xmlns="http://www.w3.org/2000/svg">
<path fill-rule="evenodd" clip-rule="evenodd" d="M10.1985 3.33354C9.99077 3.33354 11.4485 3.33354 10.1985 3.33354C9.36513 3.33354 9.62853 3.33358 10.1985 3.33354C10.4619 3.33374 10.3135 3.33354 10.1985 3.33354C10.1985 3.33354 9.76452 3.38287 9.62521 3.3976L9.76452 3.38287C8.7573 3.48404 7.66528 3.71336 7.21492 3.8138C7.08162 3.84353 6.94336 3.80583 6.83259 3.72593C6.49014 3.47891 6.06963 3.33337 5.61513 3.33337C4.56465 3.33337 3.80594 5.06763 3.24484 6.8097C2.56975 8.90566 2.2818 11.1314 2.2818 13.3334C2.2818 14.7141 3.40109 15.8334 4.7818 15.8334C5.56461 15.8334 6.26339 15.4736 6.72179 14.9103L7.24688 14.211C8.13178 13.0309 9.1547 11.6667 10.6151 11.6667C12.0756 11.6667 13.0985 13.0309 13.9834 14.211L14.5085 14.9103C14.9669 15.4736 15.6657 15.8334 16.4485 15.8334C17.8292 15.8334 18.9485 14.7141 18.9485 13.3334C18.9485 11.1273 18.7235 8.89529 18.1581 6.7629C17.6972 5.02496 17.0075 3.33337 15.708 3.33337C15.2534 3.33337 14.8327 3.479 14.4902 3.72615C14.3796 3.80595 14.2419 3.84373 14.1087 3.81425C13.588 3.69892 12.2057 3.41193 11.0701 3.34668L10.6151 3.33333C10.6151 3.33333 10.0563 3.33354 10.1985 3.33354L10.1789 3.33333C10.9844 3.33333 10.4062 3.33354 10.1985 3.33354ZM7.2818 5.625C7.62698 5.625 7.9068 5.90482 7.9068 6.25V7.29167H8.94847C9.29364 7.29167 9.57347 7.57149 9.57347 7.91667C9.57347 8.26184 9.29364 8.54167 8.94847 8.54167H7.9068V9.58333C7.9068 9.92851 7.62698 10.2083 7.2818 10.2083C6.93662 10.2083 6.6568 9.92851 6.6568 9.58333V8.54167H5.61513C5.26995 8.54167 4.99013 8.26184 4.99013 7.91667C4.99013 7.57149 5.26995 7.29167 5.61513 7.29167H6.6568V6.25C6.6568 5.90482 6.93662 5.625 7.2818 5.625ZM13.5235 6.45833C13.5235 6.11316 13.8033 5.83333 14.1485 5.83333H14.1568C14.502 5.83333 14.7818 6.11316 14.7818 6.45833C14.7818 6.80351 14.502 7.08333 14.1568 7.08333H14.1485C13.8033 7.08333 13.5235 6.80351 13.5235 6.45833ZM12.0651 7.91667C12.0651 7.57149 12.345 7.29167 12.6901 7.29167H12.6985C13.0436 7.29167 13.3235 7.57149 13.3235 7.91667C13.3235 8.26184 13.0436 8.54167 12.6985 8.54167H12.6901C12.345 8.54167 12.0651 8.26184 12.0651 7.91667ZM14.9818 7.91667C14.9818 7.57149 15.2616 7.29167 15.6068 7.29167H15.6151C15.9603 7.29167 16.2401 7.57149 16.2401 7.91667C16.2401 8.26184 15.9603 8.54167 15.6151 8.54167H15.6068C15.2616 8.54167 14.9818 8.26184 14.9818 7.91667ZM13.5235 9.375C13.5235 9.02982 13.8033 8.75 14.1485 8.75H14.1568C14.502 8.75 14.7818 9.02982 14.7818 9.375C14.7818 9.72018 14.502 10 14.1568 10H14.1485C13.8033 10 13.5235 9.72018 13.5235 9.375Z" fill="#9DABBD"/>
</svg>
