<svg width="20" height="20" viewBox="0 0 20 20" fill="none" xmlns="http://www.w3.org/2000/svg">
<path fill-rule="evenodd" clip-rule="evenodd" d="M10 2.33333C5.76582 2.33333 2.33333 5.76582 2.33333 10C2.33333 14.2342 5.76582 17.6667 10 17.6667C14.2342 17.6667 17.6667 14.2342 17.6667 10C17.6667 5.76582 14.2342 2.33333 10 2.33333ZM1 10C1 5.02944 5.02944 1 10 1C14.9706 1 19 5.02944 19 10C19 14.9706 14.9706 19 10 19C5.02944 19 1 14.9706 1 10ZM7.78511 6.2642C7.24161 6.6783 6.96296 7.20242 6.96296 7.72928C6.96296 8.09747 6.66449 8.39594 6.2963 8.39594C5.92811 8.39594 5.62963 8.09747 5.62963 7.72928C5.62963 6.69766 6.18008 5.81085 6.97706 5.20363C7.77349 4.59682 8.84447 4.24074 10 4.24074C11.1555 4.24074 12.2265 4.59682 13.0229 5.20363C13.8199 5.81085 14.3704 6.69766 14.3704 7.72928C14.3704 9.27944 13.1539 10.4715 11.6649 10.9578C11.036 11.1632 10.6667 11.6159 10.6667 12.0326V12.7778C10.6667 13.146 10.3682 13.4444 10 13.4444C9.63181 13.4444 9.33333 13.146 9.33333 12.7778V12.0326C9.33333 10.8129 10.3244 9.99298 11.251 9.69037C12.4033 9.31402 13.037 8.50725 13.037 7.72928C13.037 7.20242 12.7584 6.6783 12.2149 6.2642C11.6708 5.84969 10.89 5.57407 10 5.57407C9.11003 5.57407 8.32916 5.84969 7.78511 6.2642ZM9.33333 15.0926C9.33333 14.7244 9.63181 14.4259 10 14.4259H10.0093C10.3774 14.4259 10.6759 14.7244 10.6759 15.0926C10.6759 15.4608 10.3774 15.7593 10.0093 15.7593H10C9.63181 15.7593 9.33333 15.4608 9.33333 15.0926Z" fill="#9DABBD"/>
</svg>
