<svg width="17" height="17" viewBox="0 0 17 17" fill="none" xmlns="http://www.w3.org/2000/svg">
<path d="M1.20547 5.93839C1.08439 5.45268 1.30587 4.94637 1.74475 4.70561L7.96997 1.29064C8.30012 1.10953 8.69988 1.10953 9.03003 1.29064L15.2552 4.70561C15.6941 4.94637 15.9156 5.45268 15.7945 5.93839L13.8293 13.8219C13.7433 14.1667 13.4963 14.449 13.1659 14.5799L8.90592 16.2676C8.64517 16.3709 8.35483 16.3709 8.09408 16.2676L3.83412 14.5799C3.5037 14.449 3.2567 14.1667 3.17073 13.8219L1.20547 5.93839Z" fill="url(#paint0_linear_301_826)"/>
<g style="mix-blend-mode:multiply" opacity="0.3">
<path fill-rule="evenodd" clip-rule="evenodd" d="M9.03795 8.71443L3.46652 10.4287L2.60938 7.00014L9.03795 8.71443ZM9.03795 8.71443L10.7522 2.28585L9.03795 1.42871L7.75223 2.28585L9.03795 8.71443ZM9.03795 8.71443L15.8951 7.00014L15.0379 10.4287L9.03795 8.71443ZM9.03795 8.71443L12.8951 3.57157L15.5274 5.07788L9.03795 8.71443ZM9.03795 8.71443L12.8951 14.7144L14.1808 13.8573L14.6094 11.7144L9.03795 8.71443ZM9.03795 8.71443L7.75223 15.5716L9.46652 16.0001L10.7522 15.143L9.03795 8.71443ZM9.03795 8.71443L5.82997 14.7753L4.32366 13.8573L3.89509 12.5716L9.03795 8.71443Z" fill="#211819"/>
<path d="M6.03795 3.143L3.03795 4.85728L9.03795 8.71443L6.03795 3.143Z" fill="#211819"/>
</g>
<g filter="url(#filter0_f_301_826)">
<path d="M9.23009 1.88963C5.71772 3.69852 3.22898 4.98024 1.76389 5.73477" stroke="#28151C" stroke-width="0.685714" stroke-linecap="round"/>
</g>
<path d="M8.10254 1.5321C8.35011 1.39633 8.64989 1.39633 8.89746 1.5321L15.123 4.94714C15.4521 5.12776 15.6181 5.50775 15.5273 5.87195L13.5615 13.7548C13.497 14.0134 13.3123 14.2259 13.0645 14.3241L8.80469 16.0116C8.60912 16.0891 8.39088 16.0891 8.19531 16.0116L3.93555 14.3241C3.68773 14.2259 3.50295 14.0134 3.43848 13.7548L1.47266 5.87195C1.38187 5.50775 1.54794 5.12776 1.87695 4.94714L8.10254 1.5321Z" stroke="url(#paint1_linear_301_826)" stroke-width="0.551021"/>
<path d="M8.44707 1.36383C7.09429 2.10102 6.13576 2.62336 5.57148 2.93086" stroke="#D7B6B1" stroke-opacity="0.5" stroke-width="0.685714" stroke-linecap="round"/>
<defs>
<filter id="filter0_f_301_826" x="0.560643" y="0.692723" width="9.87267" height="6.23894" filterUnits="userSpaceOnUse" color-interpolation-filters="sRGB">
<feFlood flood-opacity="0" result="BackgroundImageFix"/>
<feBlend mode="normal" in="SourceGraphic" in2="BackgroundImageFix" result="shape"/>
<feGaussianBlur stdDeviation="0.428571" result="effect1_foregroundBlur_301_826"/>
</filter>
<linearGradient id="paint0_linear_301_826" x1="2.71429" y1="3.57131" x2="13.2162" y2="15.2886" gradientUnits="userSpaceOnUse">
<stop stop-color="#6D483F"/>
<stop offset="1" stop-color="#311924"/>
</linearGradient>
<linearGradient id="paint1_linear_301_826" x1="3.65681" y1="3.57131" x2="12.027" y2="15.5875" gradientUnits="userSpaceOnUse">
<stop stop-color="#865F59"/>
<stop offset="0.600962" stop-color="#45302B"/>
</linearGradient>
</defs>
</svg>
