<svg width="21" height="20" viewBox="0 0 21 20" fill="none" xmlns="http://www.w3.org/2000/svg">
<path d="M6.77484 8.44535C6.26527 8.83633 5.59236 9.07407 4.85468 9.07407C4.51804 9.07407 4.19489 9.02456 3.8946 8.93358C3.58443 8.83959 3.29864 8.70136 3.04756 8.52772C1.78853 7.657 2.31531 5.90362 2.97288 4.55071L3.72707 2.999C4.12224 2.18596 4.9693 1.66667 5.90035 1.66667H15.3299C16.261 1.66667 17.1081 2.18595 17.5032 2.999L18.2574 4.55071C18.915 5.90362 19.4418 7.657 18.1827 8.52772C17.9317 8.70136 17.6459 8.83959 17.3357 8.93358C17.0354 9.02456 16.7123 9.07407 16.3756 9.07407C15.6379 9.07407 14.965 8.83633 14.4555 8.44535C13.9459 8.83633 13.273 9.07407 12.5353 9.07407C11.7976 9.07407 11.1247 8.83633 10.6152 8.44535C10.1056 8.83633 9.43267 9.07407 8.69499 9.07407C7.95731 9.07407 7.2844 8.83633 6.77484 8.44535Z" fill="#9DABBD"/>
<path d="M3.89462 16.0185V9.96728C4.203 10.0372 4.52486 10.0741 4.8547 10.0741C5.54518 10.0741 6.2026 9.9126 6.77486 9.62168C7.34712 9.9126 8.00454 10.0741 8.69502 10.0741C9.38549 10.0741 10.0429 9.9126 10.6152 9.62168C11.1874 9.9126 11.8449 10.0741 12.5353 10.0741C13.2258 10.0741 13.8832 9.9126 14.4555 9.62168C15.0277 9.9126 15.6852 10.0741 16.3756 10.0741C16.7055 10.0741 17.0273 10.0372 17.3357 9.96729V16.0185C17.3357 17.297 16.2611 18.3333 14.9355 18.3333H13.6403V15.0231C13.6403 13.3784 12.2644 12.0833 10.6151 12.0833C8.9659 12.0833 7.58994 13.3784 7.58994 15.0231V18.3333H6.29481C4.96922 18.3333 3.89462 17.297 3.89462 16.0185Z" fill="#9DABBD"/>
<path d="M8.83994 18.3333H12.3903V15.0231C12.3903 14.111 11.6171 13.3333 10.6151 13.3333C9.61319 13.3333 8.83994 14.111 8.83994 15.0231V18.3333Z" fill="#9DABBD"/>
</svg>
