<svg width="18" height="14" viewBox="0 0 18 14" fill="none" xmlns="http://www.w3.org/2000/svg">
<path fill-rule="evenodd" clip-rule="evenodd" d="M4.6641 0.541687H13.3358C13.6335 0.541687 13.904 0.541687 14.1482 0.544396C15.0157 0.554019 15.6828 0.59227 16.252 0.882291C16.84 1.1819 17.3181 1.65996 17.6177 2.24797C17.9077 2.81717 17.946 3.48433 17.9556 4.35177C17.9583 4.59598 17.9583 4.86641 17.9583 5.16408V8.83596C17.9583 9.13363 17.9583 9.40406 17.9556 9.64826C17.946 10.5157 17.9077 11.1829 17.6177 11.7521C17.3181 12.3401 16.84 12.8181 16.252 13.1177C15.6828 13.4078 15.0156 13.446 14.1482 13.4556C13.904 13.4584 13.6336 13.4584 13.3359 13.4584H4.66402C4.36635 13.4584 4.09592 13.4584 3.85171 13.4556C2.98427 13.446 2.3171 13.4078 1.74791 13.1177C1.1599 12.8181 0.681835 12.3401 0.382231 11.7521C0.0922091 11.1829 0.0539582 10.5157 0.0443353 9.64827C0.0416259 9.40404 0.041626 9.13358 0.041626 8.83588V5.16416C0.041626 4.86646 0.0416259 4.596 0.0443353 4.35177C0.0539582 3.48433 0.0922091 2.81717 0.382231 2.24797C0.681835 1.65996 1.1599 1.1819 1.74791 0.882292C2.3171 0.59227 2.98427 0.554019 3.85171 0.544396C4.09594 0.541687 4.3664 0.541687 4.6641 0.541687ZM4.6181 1.79169C4.62265 1.86059 4.62496 1.93006 4.62496 2.00002C4.62496 3.72591 3.22585 5.12502 1.49996 5.12502C1.43 5.12502 1.36053 5.12271 1.29163 5.11816C1.29163 5.13423 1.29163 5.1504 1.29163 5.16669V8.83335C1.29163 8.84964 1.29163 8.86581 1.29163 8.88188C1.36053 8.87733 1.43 8.87502 1.49996 8.87502C3.22585 8.87502 4.62496 10.2741 4.62496 12C4.62496 12.07 4.62265 12.1395 4.6181 12.2084C4.63417 12.2084 4.65034 12.2084 4.66663 12.2084H13.3333C13.3496 12.2084 13.3657 12.2084 13.3818 12.2084C13.3773 12.1395 13.375 12.07 13.375 12C13.375 10.2741 14.7741 8.87502 16.5 8.87502C16.5699 8.87502 16.6394 8.87733 16.7083 8.88188C16.7083 8.86581 16.7083 8.84964 16.7083 8.83335V5.16669C16.7083 5.1504 16.7083 5.13423 16.7083 5.11816C16.6394 5.12271 16.5699 5.12502 16.5 5.12502C14.7741 5.12502 13.375 3.72591 13.375 2.00002C13.375 1.93006 13.3773 1.86059 13.3818 1.79169C13.3658 1.79169 13.3496 1.79169 13.3333 1.79169H4.66663C4.65034 1.79169 4.63417 1.79169 4.6181 1.79169ZM14.6348 1.80667C14.6283 1.87013 14.625 1.93463 14.625 2.00002C14.625 3.03555 15.4644 3.87502 16.5 3.87502C16.5654 3.87502 16.6299 3.8717 16.6933 3.86522C16.6696 3.31131 16.6133 3.03015 16.5039 2.81546C16.3242 2.46265 16.0373 2.17581 15.6845 1.99605C15.4698 1.88666 15.1887 1.83037 14.6348 1.80667ZM16.6933 10.1348C16.6299 10.1283 16.5654 10.125 16.5 10.125C15.4644 10.125 14.625 10.9645 14.625 12C14.625 12.0654 14.6283 12.1299 14.6348 12.1934C15.1887 12.1697 15.4698 12.1134 15.6845 12.004C16.0373 11.8242 16.3242 11.5374 16.5039 11.1846C16.6133 10.9699 16.6696 10.6887 16.6933 10.1348ZM3.36516 12.1934C3.37163 12.1299 3.37496 12.0654 3.37496 12C3.37496 10.9645 2.53549 10.125 1.49996 10.125C1.43457 10.125 1.37007 10.1283 1.30661 10.1348C1.33031 10.6887 1.3866 10.9699 1.49599 11.1846C1.67575 11.5374 1.96259 11.8242 2.31539 12.004C2.53009 12.1134 2.81124 12.1697 3.36516 12.1934ZM1.30661 3.86522C1.37007 3.8717 1.43457 3.87502 1.49996 3.87502C2.53549 3.87502 3.37496 3.03555 3.37496 2.00002C3.37496 1.93463 3.37163 1.87013 3.36516 1.80667C2.81124 1.83037 2.53009 1.88666 2.31539 1.99605C1.96259 2.17581 1.67575 2.46265 1.49599 2.81545C1.3866 3.03015 1.33031 3.31131 1.30661 3.86522ZM8.99996 5.12502C7.96443 5.12502 7.12496 5.96449 7.12496 7.00002C7.12496 8.03555 7.96443 8.87502 8.99996 8.87502C10.0355 8.87502 10.875 8.03555 10.875 7.00002C10.875 5.96449 10.0355 5.12502 8.99996 5.12502ZM5.87496 7.00002C5.87496 5.27413 7.27407 3.87502 8.99996 3.87502C10.7259 3.87502 12.125 5.27413 12.125 7.00002C12.125 8.72591 10.7259 10.125 8.99996 10.125C7.27407 10.125 5.87496 8.72591 5.87496 7.00002ZM3.37496 7.00002C3.37496 6.65484 3.65478 6.37502 3.99996 6.37502H4.00829C4.35347 6.37502 4.63329 6.65484 4.63329 7.00002C4.63329 7.3452 4.35347 7.62502 4.00829 7.62502H3.99996C3.65478 7.62502 3.37496 7.3452 3.37496 7.00002ZM13.375 7.00002C13.375 6.65484 13.6548 6.37502 14 6.37502H14.0083C14.3535 6.37502 14.6333 6.65484 14.6333 7.00002C14.6333 7.3452 14.3535 7.62502 14.0083 7.62502H14C13.6548 7.62502 13.375 7.3452 13.375 7.00002Z" fill="#616F81"/>
</svg>
