<svg width="20" height="20" viewBox="0 0 20 20" fill="none" xmlns="http://www.w3.org/2000/svg">
<path fill-rule="evenodd" clip-rule="evenodd" d="M9.99996 2.29167C5.74276 2.29167 2.29163 5.7428 2.29163 10C2.29163 14.2572 5.74276 17.7083 9.99996 17.7083C14.2572 17.7083 17.7083 14.2572 17.7083 10C17.7083 5.7428 14.2572 2.29167 9.99996 2.29167ZM1.04163 10C1.04163 5.05245 5.05241 1.04167 9.99996 1.04167C14.9475 1.04167 18.9583 5.05245 18.9583 10C18.9583 14.9476 14.9475 18.9583 9.99996 18.9583C5.05241 18.9583 1.04163 14.9476 1.04163 10ZM9.99996 6.04167C10.3451 6.04167 10.625 6.32149 10.625 6.66667V9.375H13.3333C13.6785 9.375 13.9583 9.65482 13.9583 10C13.9583 10.3452 13.6785 10.625 13.3333 10.625H10.625V13.3333C10.625 13.6785 10.3451 13.9583 9.99996 13.9583C9.65478 13.9583 9.37496 13.6785 9.37496 13.3333V10.625H6.66663C6.32145 10.625 6.04163 10.3452 6.04163 10C6.04163 9.65482 6.32145 9.375 6.66663 9.375H9.37496V6.66667C9.37496 6.32149 9.65478 6.04167 9.99996 6.04167Z" fill="white"/>
</svg>
