<svg width="18" height="18" viewBox="0 0 18 18" fill="none" xmlns="http://www.w3.org/2000/svg">
<path fill-rule="evenodd" clip-rule="evenodd" d="M8.99996 1.29163C4.74276 1.29163 1.29163 4.74276 1.29163 8.99996C1.29163 13.2572 4.74276 16.7083 8.99996 16.7083C13.2572 16.7083 16.7083 13.2572 16.7083 8.99996C16.7083 4.74276 13.2572 1.29163 8.99996 1.29163ZM0.041626 8.99996C0.041626 4.05241 4.05241 0.041626 8.99996 0.041626C13.9475 0.041626 17.9583 4.05241 17.9583 8.99996C17.9583 13.9475 13.9475 17.9583 8.99996 17.9583C4.05241 17.9583 0.041626 13.9475 0.041626 8.99996ZM9.48908 6.05294C9.73596 5.8117 10.1317 5.81627 10.3729 6.06315L12.7866 8.53322L12.8077 8.56015C12.9185 8.70167 12.9583 8.86307 12.9583 8.99996C12.9583 9.13685 12.9185 9.29825 12.8077 9.43977L12.7866 9.4667L10.3729 11.9368C10.1317 12.1836 9.73596 12.1882 9.48908 11.947C9.2422 11.7057 9.23763 11.31 9.47887 11.0632L10.8842 9.62496H5.66663C5.32145 9.62496 5.04163 9.34514 5.04163 8.99996C5.04163 8.65478 5.32145 8.37496 5.66663 8.37496H10.8842L9.47887 6.93677C9.23763 6.68989 9.2422 6.29419 9.48908 6.05294Z" fill="#9DABBD"/>
</svg>
