<svg width="18" height="18" viewBox="0 0 18 18" fill="none" xmlns="http://www.w3.org/2000/svg">
<path fill-rule="evenodd" clip-rule="evenodd" d="M1.29163 14.5833C1.29163 15.6189 2.13109 16.4583 3.16663 16.4583L14.8333 16.4583C15.8688 16.4583 16.7083 15.6189 16.7083 14.5833L16.7083 8.75C16.7083 7.82156 16.0329 7.04965 15.1465 6.90095C14.8061 6.84384 14.5765 6.52158 14.6336 6.18116C14.6907 5.84074 15.0129 5.61107 15.3534 5.66818C16.8318 5.91622 17.9583 7.20095 17.9583 8.75L17.9583 14.5833C17.9583 16.3092 16.5592 17.7083 14.8333 17.7083L3.16663 17.7083C1.44074 17.7083 0.0416259 16.3092 0.0416258 14.5833L0.0416256 8.75C0.0416255 7.20095 1.1681 5.91622 2.64655 5.66818C2.98697 5.61107 3.30923 5.84074 3.36634 6.18116C3.42346 6.52158 3.19379 6.84384 2.85337 6.90095C1.96706 7.04965 1.29163 7.82156 1.29163 8.75L1.29163 14.5833ZM5.22468 4.95624C4.98061 4.71216 4.98061 4.31643 5.22468 4.07236L8.44017 0.856874C8.59463 0.702415 8.79832 0.625002 8.99996 0.625002C9.20159 0.625002 9.40529 0.702409 9.55976 0.856882L12.7752 4.07236C13.0193 4.31643 13.0193 4.71216 12.7752 4.95624C12.5312 5.20032 12.1354 5.20032 11.8914 4.95624L9.62496 2.68985L9.62496 12.0143C9.62496 12.3595 9.34514 12.6393 8.99996 12.6393C8.65478 12.6393 8.37496 12.3595 8.37496 12.0143L8.37496 2.68985L6.10857 4.95624C5.86449 5.20032 5.46876 5.20032 5.22468 4.95624Z" fill="#9DABBD"/>
</svg>
