<svg width="20" height="20" viewBox="0 0 20 20" fill="none" xmlns="http://www.w3.org/2000/svg">
<path fill-rule="evenodd" clip-rule="evenodd" d="M9.98743 2.29265C9.98367 2.29372 9.97467 2.29645 9.95838 2.30231C9.91993 2.31615 9.86918 2.33677 9.7775 2.37429C9.10692 2.64872 7.8143 3.16486 6.85405 3.46654C6.13073 3.69379 5.18396 3.92893 4.48295 4.09382C4.29116 4.13893 4.18126 4.16521 4.10141 4.19051C4.06316 4.20263 4.04459 4.21079 4.03781 4.21408C4.01408 4.23345 3.99379 4.25915 3.97758 4.29955C3.97609 4.3043 3.96956 4.32909 3.96497 4.39716C3.95872 4.49008 3.95839 4.61377 3.95839 4.81976V10.3948C3.95839 11.8401 3.96466 12.4332 4.12107 12.955C4.26488 13.4348 4.49934 13.8741 4.80718 14.2459C5.13871 14.6463 5.59876 14.9457 6.76064 15.6804L9.69784 17.5378C9.82005 17.6151 9.88791 17.6577 9.94017 17.6863C9.96257 17.6986 9.97503 17.7043 9.98026 17.7065C9.99345 17.709 10.0067 17.709 10.0199 17.7065C10.0251 17.7043 10.0376 17.6986 10.0599 17.6863C10.1122 17.6577 10.1801 17.6151 10.3023 17.5378L13.2395 15.6804C14.4014 14.9457 14.8614 14.6463 15.1929 14.2459C15.5008 13.8741 15.7352 13.4348 15.8791 12.955C16.0355 12.4332 16.0417 11.8401 16.0417 10.3948V4.81976C16.0417 4.61377 16.0414 4.49008 16.0351 4.39716C16.0306 4.32913 16.024 4.30433 16.0225 4.29956C16.0063 4.25915 15.986 4.23345 15.9623 4.21408C15.9555 4.21079 15.937 4.20263 15.8987 4.19051C15.8189 4.16521 15.709 4.13893 15.5172 4.09382C14.8162 3.92893 13.8694 3.69379 13.1461 3.46654C12.1858 3.16486 10.8932 2.64872 10.2226 2.37429C10.1309 2.33677 10.0802 2.31615 10.0417 2.30231C10.0254 2.29645 10.0164 2.29372 10.0127 2.29265C10.0031 2.29133 9.99697 2.29133 9.98743 2.29265ZM15.9655 4.21571L15.9646 4.21523L15.9655 4.21571ZM4.03466 4.21571L4.03547 4.21526L4.03466 4.21571ZM9.78909 1.05845C9.93116 1.03607 10.069 1.03607 10.211 1.05845C10.3711 1.08367 10.5245 1.14683 10.6602 1.20266C10.6723 1.20765 10.6842 1.21258 10.6961 1.21742C11.3681 1.49244 12.6165 1.98992 13.5207 2.27401C14.1974 2.48661 15.1064 2.71308 15.8034 2.87702L15.8221 2.88143C15.9885 2.92056 16.1456 2.95749 16.2763 2.9989C16.4193 3.04421 16.5744 3.10757 16.721 3.22051C16.9303 3.38184 17.0858 3.59239 17.183 3.83488C17.2492 4.00028 17.2722 4.16247 17.2823 4.31322C17.2917 4.45323 17.2917 4.61959 17.2917 4.80179V10.3948C17.2917 10.4318 17.2917 10.4684 17.2917 10.5046C17.2919 11.8057 17.292 12.5947 17.0764 13.3139C16.8858 13.95 16.573 14.5392 16.1557 15.0431C15.6819 15.6153 15.0389 16.0217 14.0014 16.6776C13.9705 16.6972 13.9392 16.7169 13.9076 16.7369L10.9704 18.5943C10.9547 18.6042 10.9389 18.6143 10.9228 18.6245C10.7421 18.7395 10.5378 18.8696 10.307 18.9231C10.1049 18.9701 9.89527 18.9701 9.69316 18.9231C9.46233 18.8696 9.258 18.7395 9.07731 18.6245C9.06127 18.6143 9.04543 18.6042 9.02977 18.5943L6.09256 16.7369C6.06093 16.7169 6.02965 16.6972 5.99873 16.6776C4.96117 16.0217 4.31818 15.6153 3.8444 15.0431C3.42715 14.5392 3.11436 13.95 2.9237 13.3139C2.70812 12.5947 2.70822 11.8056 2.70838 10.5046C2.70839 10.4684 2.70839 10.4318 2.70839 10.3948L2.70839 4.80181C2.70838 4.61961 2.70837 4.45323 2.7178 4.31321C2.72794 4.16247 2.7509 4.00029 2.81716 3.83489C2.9143 3.59239 3.06984 3.38184 3.27916 3.22051C3.42569 3.10757 3.58085 3.04421 3.72382 2.9989C3.85451 2.95749 4.01157 2.92056 4.17801 2.88143C4.18424 2.87997 4.19049 2.8785 4.19675 2.87702C4.89375 2.71308 5.8027 2.48661 6.4794 2.27401C7.38367 1.98992 8.63205 1.49244 9.30406 1.21742C9.31588 1.21258 9.32785 1.20765 9.33997 1.20266C9.47559 1.14683 9.62901 1.08367 9.78909 1.05845ZM12.9379 7.88736C13.1842 8.1292 13.1879 8.52491 12.946 8.77121L9.71283 12.0641C9.41236 12.3702 8.91257 12.3675 8.61578 12.0561L7.04761 10.4105C6.80948 10.1606 6.819 9.76503 7.06888 9.5269C7.31876 9.28877 7.71438 9.29829 7.95251 9.54817L9.17343 10.8293L12.0541 7.89545C12.2959 7.64915 12.6916 7.64553 12.9379 7.88736Z" fill="#9DABBD"/>
</svg>
