<svg width="18" height="18" viewBox="0 0 18 18" fill="none" xmlns="http://www.w3.org/2000/svg">
<path d="M6.88604 0.792882C6.94831 0.624621 7.18629 0.624622 7.24855 0.792883L8.86344 5.15704C8.88301 5.20994 8.92472 5.25165 8.97762 5.27122L13.3418 6.88611C13.51 6.94837 13.51 7.18635 13.3418 7.24862L8.97762 8.8635C8.92472 8.88307 8.88301 8.92478 8.86344 8.97768L7.24855 13.3418C7.18629 13.5101 6.94831 13.5101 6.88604 13.3418L5.27116 8.97768C5.25159 8.92478 5.20988 8.88307 5.15698 8.8635L0.792821 7.24861C0.62456 7.18635 0.624561 6.94837 0.792822 6.88611L5.15698 5.27122C5.20988 5.25165 5.25159 5.20994 5.27116 5.15704L6.88604 0.792882Z" fill="#9658FB"/>
<path d="M13.6504 10.4562C13.7126 10.2879 13.9506 10.2879 14.0129 10.4562L14.8448 12.7043C14.8643 12.7572 14.906 12.7989 14.9589 12.8185L17.2071 13.6504C17.3754 13.7127 17.3754 13.9507 17.2071 14.0129L14.9589 14.8448C14.906 14.8644 14.8643 14.9061 14.8448 14.959L14.0129 17.2072C13.9506 17.3754 13.7126 17.3754 13.6504 17.2072L12.8185 14.959C12.7989 14.9061 12.7572 14.8644 12.7043 14.8448L10.4561 14.0129C10.2879 13.9507 10.2879 13.7127 10.4561 13.6504L12.7043 12.8185C12.7572 12.7989 12.7989 12.7572 12.8185 12.7043L13.6504 10.4562Z" fill="#9658FB"/>
</svg>
