<svg width="16" height="16" viewBox="0 0 16 16" fill="none" xmlns="http://www.w3.org/2000/svg">
<g clip-path="url(#clip0_1_2637)">
<path fill-rule="evenodd" clip-rule="evenodd" d="M8.00005 1.86665C4.6127 1.86665 1.86672 4.61264 1.86672 7.99999C1.86672 11.3873 4.6127 14.1333 8.00005 14.1333C11.3874 14.1333 14.1334 11.3873 14.1334 7.99999C14.1334 4.61264 11.3874 1.86665 8.00005 1.86665ZM0.800049 7.99999C0.800049 4.02354 4.0236 0.799988 8.00005 0.799988C11.9765 0.799988 15.2 4.02354 15.2 7.99999C15.2 11.9764 11.9765 15.2 8.00005 15.2C4.0236 15.2 0.800049 11.9764 0.800049 7.99999ZM7.46672 5.33332C7.46672 5.03877 7.7055 4.79999 8.00005 4.79999H8.00672C8.30127 4.79999 8.54005 5.03877 8.54005 5.33332C8.54005 5.62787 8.30127 5.86665 8.00672 5.86665H8.00005C7.7055 5.86665 7.46672 5.62787 7.46672 5.33332ZM8.00005 6.46665C8.2946 6.46665 8.53338 6.70544 8.53338 6.99999V10.6667C8.53338 10.9612 8.2946 11.2 8.00005 11.2C7.7055 11.2 7.46672 10.9612 7.46672 10.6667V6.99999C7.46672 6.70544 7.7055 6.46665 8.00005 6.46665Z" fill="#616F81"/>
</g>
<defs>
<clipPath id="clip0_1_2637">
<rect width="16" height="16" fill="white"/>
</clipPath>
</defs>
</svg>
