<svg width="20" height="20" viewBox="0 0 20 20" fill="none" xmlns="http://www.w3.org/2000/svg">
<path fill-rule="evenodd" clip-rule="evenodd" d="M13.4383 7.15331C13.6298 6.86611 14.0178 6.7885 14.305 6.97997L14.306 6.98063L14.3071 6.98138L14.3097 6.98312L14.3162 6.98758L14.3346 7.00042C14.3491 7.01073 14.368 7.02456 14.3908 7.04192C14.4363 7.0766 14.4975 7.12564 14.5689 7.18912C14.7112 7.31565 14.8975 7.50224 15.0833 7.75C15.4564 8.2474 15.8333 9.00073 15.8333 10C15.8333 10.9993 15.4564 11.7526 15.0833 12.25C14.8975 12.4978 14.7112 12.6843 14.5689 12.8109C14.4975 12.8744 14.4363 12.9234 14.3908 12.9581C14.368 12.9754 14.3491 12.9893 14.3346 12.9996L14.3162 13.0124L14.3097 13.0169L14.3071 13.0186L14.306 13.0194C14.3046 13.0203 14.305 13.02 14.305 13.02C14.0178 13.2115 13.6298 13.1339 13.4383 12.8467C13.2476 12.5607 13.3238 12.1747 13.608 11.9824L13.6102 11.9809C13.614 11.9782 13.6219 11.9725 13.6333 11.9638C13.6561 11.9464 13.6926 11.9173 13.7384 11.8766C13.8304 11.7948 13.9567 11.6689 14.0833 11.5C14.3353 11.1641 14.5833 10.6674 14.5833 10C14.5833 9.3326 14.3353 8.83594 14.0833 8.5C13.9567 8.33109 13.8304 8.20518 13.7384 8.12338C13.6926 8.0827 13.6561 8.0536 13.6333 8.03621C13.6219 8.02753 13.614 8.02183 13.6102 8.01911L13.608 8.01761M13.4383 7.15331C13.2476 7.43931 13.3238 7.8253 13.608 8.01761L13.4383 7.15331Z" fill="#9DABBD"/>
<path fill-rule="evenodd" clip-rule="evenodd" d="M13.4383 7.15331C13.6298 6.86611 14.0178 6.7885 14.305 6.97997L14.306 6.98063L14.3071 6.98138L14.3097 6.98312L14.3162 6.98758L14.3346 7.00042C14.3491 7.01073 14.368 7.02456 14.3908 7.04192C14.4363 7.0766 14.4975 7.12564 14.5689 7.18912C14.7112 7.31565 14.8975 7.50224 15.0833 7.75C15.4564 8.2474 15.8333 9.00073 15.8333 10C15.8333 10.9993 15.4564 11.7526 15.0833 12.25C14.8975 12.4978 14.7112 12.6843 14.5689 12.8109C14.4975 12.8744 14.4363 12.9234 14.3908 12.9581C14.368 12.9754 14.3491 12.9893 14.3346 12.9996L14.3162 13.0124L14.3097 13.0169L14.3071 13.0186L14.306 13.0194C14.3046 13.0203 14.305 13.02 14.305 13.02C14.0178 13.2115 13.6298 13.1339 13.4383 12.8467C13.2476 12.5607 13.3238 12.1747 13.608 11.9824L13.6102 11.9809C13.614 11.9782 13.6219 11.9725 13.6333 11.9638C13.6561 11.9464 13.6926 11.9173 13.7384 11.8766C13.8304 11.7948 13.9567 11.6689 14.0833 11.5C14.3353 11.1641 14.5833 10.6674 14.5833 10C14.5833 9.3326 14.3353 8.83594 14.0833 8.5C13.9567 8.33109 13.8304 8.20518 13.7384 8.12338C13.6926 8.0827 13.6561 8.0536 13.6333 8.03621C13.6219 8.02753 13.614 8.02183 13.6102 8.01911L13.608 8.01761M13.4383 7.15331C13.2476 7.43931 13.3238 7.8253 13.608 8.01761L13.4383 7.15331Z" fill="#9DABBD"/>
<path d="M14.9286 4.60957C15.1443 4.34003 15.5376 4.29633 15.8071 4.51196L15.8085 4.51309L15.8103 4.5145L15.8148 4.51815L15.8277 4.52882C15.838 4.53743 15.8516 4.54902 15.8684 4.56361C15.9018 4.59279 15.9475 4.63399 16.003 4.68723C16.1139 4.79363 16.2644 4.94863 16.4344 5.15239C16.7741 5.5595 17.1948 6.165 17.5318 6.9698C17.872 7.78234 18.125 8.79373 18.125 10C18.125 11.2063 17.872 12.2177 17.5318 13.0302C17.1948 13.835 16.7741 14.4405 16.4344 14.8476C16.2644 15.0514 16.1139 15.2064 16.003 15.3128C15.9475 15.366 15.9018 15.4072 15.8684 15.4364C15.8516 15.451 15.838 15.4626 15.8277 15.4712L15.8148 15.4818L15.8103 15.4855L15.8078 15.4875C15.8078 15.4875 15.807 15.4879 15.4167 15L15.8071 15.488C15.5376 15.7037 15.1443 15.66 14.9286 15.3904C14.7136 15.1216 14.7565 14.7297 15.0241 14.5137L15.0267 14.5115C15.0302 14.5086 15.0369 14.503 15.0466 14.4945C15.0659 14.4776 15.097 14.4497 15.1375 14.4108C15.2187 14.333 15.3371 14.2116 15.4746 14.0468C15.7499 13.7168 16.0985 13.2167 16.3788 12.5474C16.6604 11.8748 16.875 11.027 16.875 10C16.875 8.97301 16.6604 8.12521 16.3788 7.4526C16.0985 6.78327 15.7499 6.28317 15.4746 5.95321C15.3371 5.78844 15.2187 5.66703 15.1375 5.58918C15.097 5.55028 15.0659 5.52238 15.0466 5.50549C15.0369 5.49705 15.0302 5.49137 15.0267 5.48846L15.0241 5.4863C14.7565 5.2703 14.7136 4.87838 14.9286 4.60957Z" fill="#9DABBD"/>
<path fill-rule="evenodd" clip-rule="evenodd" d="M10.7784 4.44099C10.7075 3.63747 9.77736 3.25922 9.16366 3.78452L6.74851 5.85183C6.26682 6.26415 5.65505 6.49128 5.02174 6.49128H4.54406C3.76712 6.49128 3.125 7.13042 3.125 7.93407V12.0696C3.125 12.8733 3.76712 13.5124 4.54406 13.5124H5.02174C5.65505 13.5124 6.26682 13.7396 6.74851 14.1519L9.15926 16.2154C9.77333 16.741 10.705 16.3622 10.7755 15.5571C11.1294 11.5193 11.1304 8.43243 10.7784 4.44099ZM8.35081 2.8349C9.72929 1.65496 11.8625 2.5052 12.0235 4.33116C12.3821 8.39636 12.3809 11.5565 12.0208 15.6662C11.8607 17.4931 9.72628 18.3462 8.34641 17.165L5.93566 15.1015C5.67922 14.882 5.35536 14.7624 5.02174 14.7624H4.54406C3.0632 14.7624 1.875 13.55 1.875 12.0696V7.93407C1.875 6.4537 3.0632 5.24128 4.54406 5.24128H5.02174C5.35536 5.24128 5.67922 5.12171 5.93566 4.90221L8.35081 2.8349Z" fill="#9DABBD"/>
</svg>
