<svg width="44" height="44" viewBox="0 0 44 44" fill="none" xmlns="http://www.w3.org/2000/svg">
<rect x="0.5" y="0.5" width="43" height="43" rx="21.5" stroke="#222D3B"/>
<mask id="mask0_301_529" style="mask-type:luminance" maskUnits="userSpaceOnUse" x="13" y="13" width="18" height="18">
<path d="M13 13H31V31H13V13Z" fill="white"/>
</mask>
<g mask="url(#mask0_301_529)">
<path d="M28.7568 14.3795L23.502 20.401L23.2158 20.7281L23.4775 21.0758L29.9248 29.6207H25.71L21.5186 24.1295L21.1201 23.608L20.6885 24.1022L15.873 29.6207H14.5312L20.2061 23.1158L20.4941 22.7867L20.2285 22.4391L14.082 14.3805H18.4277L22.1973 19.3785L22.5947 19.9049L23.0283 19.4078L27.418 14.3795H28.7568ZM15.7939 15.7379L25.7783 28.8258L25.9395 29.0358H28.8096L28.1621 28.1783L18.2881 15.0905L18.127 14.8776H15.1367L15.7939 15.7379Z" stroke="#9DABBD" stroke-width="1.07143"/>
</g>
</svg>
